<svg width="50" height="26" viewBox="0 0 50 26" fill="none" xmlns="http://www.w3.org/2000/svg">
<g clip-path="url(#clip0_0_366)">
<path d="M18.0119 13.7733C18.6033 13.3824 19.8361 11.879 19.9062 11.7487C19.9764 11.6184 20.227 11.3578 19.9664 11.0972C19.7058 10.8366 19.4452 10.9669 19.1144 11.1573C18.7937 11.2876 17.4206 12.33 16.8994 12.7911C16.3782 13.1819 15.0752 14.3546 15.0752 14.3546C15.0752 14.3546 14.3535 14.946 14.6141 15.2667C14.8747 15.5874 15.1353 15.4672 15.4661 15.3369C15.857 15.2066 17.4306 14.1642 18.0119 13.7733ZM46.9882 21.1502C47.1887 21.2103 47.6397 21.3506 47.6397 21.8017C47.6397 21.8017 47.1787 22.7138 47.0484 22.7839C46.8479 22.8441 46.5272 22.8441 45.8757 22.5835C45.2242 22.3229 42.0269 21.5411 41.1749 21.3406C40.323 21.1402 38.4387 20.8194 38.4387 20.8194C38.4387 20.8194 38.1781 20.6891 37.7872 21.2805C37.3963 21.932 36.1534 23.696 36.1534 23.696C36.1133 23.8464 35.983 23.9566 35.8327 23.9566C35.5721 23.9566 34.5899 23.8864 34.199 23.696C33.8081 23.5056 33.6778 23.4956 33.9384 23.1047C34.199 22.7138 35.0509 20.9497 35.4418 20.629C35.7625 20.3083 35.1812 20.3684 34.9808 20.3083C34.7803 20.2481 31.0016 20.0477 29.8891 20.1078C28.7766 20.1078 24.8676 20.1078 23.4243 20.2381C21.991 20.2982 16.8994 20.8295 15.5262 21.0199C14.1531 21.2805 8.67053 22.0021 7.9589 22.1926C7.24727 22.383 5.74383 22.5835 5.74383 22.5835C5.24268 22.6937 4.72149 22.6536 4.24039 22.4532C3.51874 22.1324 2.34605 21.6714 3.3283 21.3406C4.31055 21.0099 9.20174 20.0376 10.7052 19.8372C12.2086 19.5766 16.9695 18.9251 18.924 18.8549C20.8785 18.7848 26.3009 18.464 28.3255 18.464C30.3502 18.464 33.0864 18.5943 34.3293 18.7246C35.5019 18.7848 36.2837 18.8549 36.5443 18.9251C36.8049 18.9953 36.8049 18.7948 37.0655 18.5342C37.3261 18.2736 38.0478 17.2914 38.0478 17.2914C38.0478 17.2914 38.3084 16.9005 37.7872 17.2312C37.3261 17.5519 36.5443 17.5519 36.1534 17.2312C35.7625 16.8403 35.6322 16.5096 35.4318 16.6399C35.0108 16.8704 34.5798 17.0708 34.1288 17.2312C33.7379 17.3615 32.044 17.7524 31.0618 17.1009C30.0795 16.3793 30.0194 16.1187 29.8891 15.7979C29.7588 15.3469 29.6886 15.3469 29.3679 15.5373C29.0371 15.7278 27.9346 16.3191 27.4736 16.5196C27.0626 16.7601 26.5815 16.8503 26.1004 16.7802C25.4489 16.72 24.7273 16.5196 24.4066 15.9984C24.146 15.4772 24.0858 15.0863 23.7551 15.3469C23.4243 15.6075 21.6001 16.6499 20.6279 16.9105C19.6457 17.2412 19.3851 17.3014 18.8639 17.2412C18.2725 17.1811 17.6912 16.9105 17.4907 16.5897C17.2903 16.269 17.2301 16.1988 16.9695 16.3291C16.7089 16.5296 15.9873 17.0508 15.4661 17.0508C14.9449 16.9907 13.5717 16.6599 12.8601 15.2868C12.1485 13.9136 12.6597 13.3323 13.3212 12.6106C13.9727 11.9591 15.1454 10.9168 15.1454 10.9168C15.1454 10.9168 16.6488 9.80421 17.0998 9.61378C17.621 9.35318 18.4028 8.89212 18.924 8.89212C19.6356 8.80192 20.3473 9.0124 20.8885 9.48348C21.6101 10.0748 22.0612 10.6562 22.1313 10.9168C22.2015 11.1774 22.5222 11.9591 22.001 12.5505C21.4799 13.1419 19.9764 14.505 19.9764 14.505C19.9764 14.505 19.3851 14.8357 19.6457 15.2266C19.9062 15.6175 20.8885 14.966 21.2092 14.7756C21.53 14.515 23.2339 13.0817 23.7551 12.6207C24.2763 12.0995 27.5437 8.90215 27.8645 8.57139C28.1251 8.24063 30.8713 5.56451 31.2522 5.30391C31.6431 5.04331 31.7734 4.84286 32.5552 4.98318C32.9661 5.05334 33.357 5.18364 33.7279 5.37407C33.7279 5.37407 34.5097 5.70483 33.8582 6.15586C33.2668 6.60689 31.1821 8.37093 30.6609 8.89212C30.1397 9.41332 28.6362 10.9168 28.1852 11.438C27.7241 12.0894 26.4212 13.7232 26.2307 13.9838C26.0303 14.3145 25.9 14.6353 26.2307 14.8959C26.5615 15.0963 27.1428 14.8959 27.7342 14.3747C28.3255 13.8535 30.1497 12.35 30.741 11.6986C31.3925 11.0471 34.7903 7.84974 35.1111 7.51898C35.4418 7.25839 37.0054 6.01554 37.0054 6.01554C37.0054 6.01554 37.2058 5.75494 37.6569 5.75494C38.1079 5.75494 38.569 5.81508 38.8296 5.9554L39.6114 6.3463C39.6114 6.3463 39.9321 6.4766 39.4109 6.86749C38.8897 7.25839 36.0231 9.47346 35.3015 10.3254C34.5197 11.1774 33.0163 12.8712 32.4249 13.5929C31.8335 14.3747 31.4427 14.7054 31.9037 15.2266C32.3648 15.7478 32.886 15.6175 33.1466 15.5574C33.798 15.1865 34.3894 14.7255 34.9106 14.1842C35.5621 13.5327 37.5166 11.3778 37.7872 11.1774C37.9876 10.9168 38.7694 10.1951 38.7694 10.1951C38.7694 10.1951 38.8997 9.87437 39.3608 9.87437C39.8218 9.87437 40.0123 9.93451 40.4733 10.0047C40.8642 10.0648 41.7763 10.2653 41.3253 10.7865C40.8041 11.3077 39.5612 12.6106 39.3006 12.8712C39.04 13.192 37.9977 14.3747 37.7972 14.6954C37.5967 15.0161 37.3361 15.4171 37.5967 15.6075C37.8573 15.7979 38.579 15.5474 39.2305 15.1464C40.1325 14.6653 40.9644 14.074 41.7061 13.3824C42.5581 12.6006 43.9212 11.3578 43.9212 11.3578C43.9212 11.3578 44.1818 10.8366 45.1641 11.037C46.1463 11.2976 46.4069 11.3578 46.4069 11.3578C46.4069 11.3578 47.1887 11.5582 46.6675 12.0093C46.1463 12.4603 44.4524 14.0339 43.8009 14.6152C43.1494 15.2667 41.1248 17.2913 40.7941 17.6822C40.4633 18.0731 39.4911 18.9852 39.882 19.0554C40.2729 19.1256 43.2798 19.6467 43.9312 19.8472C44.4424 20.2381 46.7978 21.0199 46.9882 21.1502ZM13.251 4.90299C12.6697 4.82281 12.0783 4.82281 11.487 4.90299C10.5047 5.03329 7.63817 5.29389 7.11697 5.55448C6.59578 5.81508 6.13472 5.22373 5.94429 5.03329C5.68369 4.83283 5.1625 4.2515 5.1625 4.2515C5.1625 4.2515 4.9019 3.92075 5.36296 3.79045C5.88415 3.66015 8.82087 3.19909 9.73296 3.0688C10.645 3.00866 15.0852 2.73804 16.3281 2.73804C17.5007 2.73804 21.6101 2.99863 22.7227 3.25923C22.7227 3.25923 22.9232 3.19909 23.1838 3.72029C23.304 4.05104 23.3742 4.41187 23.3842 4.76267C23.3842 4.76267 23.5847 5.15357 22.863 5.09343C22.0111 5.03329 20.7782 4.96313 19.9263 4.89297C19.0743 4.82281 17.0597 4.69251 16.729 4.69251C16.4684 4.69251 16.3381 4.69251 16.2078 4.95311C16.0073 5.2137 15.2255 6.25609 15.0351 6.51669C14.8447 6.77728 13.9927 7.88983 13.2711 8.87208C12.5494 9.85433 11.6373 11.0871 10.7954 12.33C10.0136 13.633 9.29195 14.8057 8.97122 15.3369C8.77076 15.6476 8.60037 15.9783 8.45002 16.3191C8.38989 16.4494 8.31973 16.6499 7.92883 16.6499C7.53794 16.6499 5.84406 16.5897 5.84406 16.5897C5.84406 16.5897 5.12241 16.6499 5.58346 15.8681C6.04452 15.0161 7.01674 13.3924 7.40764 12.8011C7.79853 12.1496 9.95347 9.21286 10.4045 8.69167C10.7753 8.23061 13.251 4.90299 13.251 4.90299Z" fill="#ED1C24"/>
<path d="M17.7491 13.1235C18.3405 12.7326 19.5833 11.2291 19.6434 11.0988C19.7036 10.9685 19.9742 10.7079 19.7036 10.4473C19.433 10.1868 19.1824 10.3171 18.8516 10.5075C18.5309 10.6378 17.1578 11.7503 16.6366 12.1412C16.1154 12.5321 14.8124 13.7048 14.8124 13.7048C14.8124 13.7048 14.0907 14.2962 14.3613 14.6169C14.632 14.9376 14.8825 14.8174 15.2133 14.6871C15.5942 14.5568 17.1678 13.5144 17.7491 13.1235ZM16.0552 2.09824H15.7345C14.1709 2.09824 10.3822 2.35883 9.53029 2.42899C8.6182 2.48913 5.68148 3.02035 5.16029 3.15064C4.6391 3.28094 4.89969 3.60168 4.89969 3.60168C4.89969 3.60168 5.42088 4.19303 5.68148 4.38347C5.94208 4.58393 6.33297 5.16526 6.85417 4.90466C7.44552 4.64406 10.3121 4.38347 11.2242 4.25317C11.8055 4.17299 12.3969 4.17299 12.9882 4.25317C12.9882 4.25317 10.5125 7.51063 10.1216 8.10198C9.73075 8.62317 7.57582 11.5599 7.11476 12.2114C6.72387 12.8629 5.68148 14.4966 5.22043 15.2784C4.82953 16.0602 5.54116 16.0001 5.54116 16.0001C5.54116 16.0001 7.23504 16.0602 7.62593 16.0602C7.94667 16.0602 8.01683 15.7996 8.08699 15.6693C8.23733 15.3285 8.40772 15.0078 8.60818 14.6871C8.93894 14.1659 9.65057 12.9932 10.4324 11.6802C11.2141 10.3672 12.1964 9.13434 12.908 8.1521C13.6197 7.16985 14.4716 6.06732 14.6721 5.80673C14.8725 5.54613 15.6543 4.50374 15.8447 4.24315C16.0352 3.98255 16.1053 3.98255 16.3659 3.98255C16.6967 3.98255 18.7113 4.11285 19.5633 4.18301C20.4753 4.25317 21.7182 4.31331 22.5 4.38347C23.2818 4.45363 23.0212 4.05271 23.0212 4.05271C23.0512 3.71193 22.9811 3.37115 22.8207 3.07046C22.5601 2.54927 22.3597 2.60941 22.3597 2.60941C21.3373 2.2987 17.2279 2.09824 16.0552 2.09824ZM46.7254 20.5004C46.9259 20.6307 47.3769 20.761 47.3168 21.1519C47.3168 21.1519 46.9259 22.0639 46.7254 22.1341C46.525 22.2043 46.2042 22.1942 45.5527 21.9336C44.9013 21.673 41.7039 20.8913 40.852 20.6908C40.0702 20.5605 38.1759 20.2398 38.1759 20.2398C38.1759 20.2398 37.9153 20.1095 37.5244 20.761C37.1335 21.3523 35.8906 23.1765 35.8906 23.1765C35.8505 23.3268 35.7202 23.4371 35.5599 23.4371C35.2993 23.4371 34.317 23.3769 33.9261 23.1765C33.5352 22.976 33.4049 22.976 33.6655 22.5851C33.9261 22.1942 34.7781 20.4302 35.169 20.1095C35.5599 19.7887 34.9685 19.8489 34.7781 19.7887C34.5776 19.7887 30.799 19.5281 29.6864 19.5883C28.5739 19.5883 24.6649 19.5883 23.2216 19.7186C21.7783 19.8489 16.6265 20.3099 15.3236 20.5004C13.9504 20.7008 8.46786 21.4826 7.75623 21.673C7.03458 21.8033 5.54116 22.0639 5.54116 22.0639C5.04001 22.1742 4.51882 22.1341 4.03772 21.9336C3.31607 21.6129 2.14338 21.1519 3.12563 20.8211C4.10788 20.4903 8.99907 19.5181 10.5025 19.3177C12.006 19.1172 16.7669 18.4056 18.7213 18.3354C20.6758 18.2051 26.0982 17.9445 28.1128 17.9445C30.1375 17.9445 32.8737 18.0748 34.1166 18.2051C35.2893 18.2652 36.071 18.3354 36.3316 18.4056C36.5922 18.4757 36.5922 18.2753 36.8528 18.0147C37.1134 17.7541 37.8351 16.7718 37.8351 16.7718C37.8351 16.7718 38.0957 16.4411 37.5745 16.7117C37.0533 17.0324 36.3316 17.0324 35.9407 16.6516C35.5499 16.2607 35.4196 16.0001 35.2191 16.0602C35.0186 16.1203 34.307 16.5112 33.9161 16.6516C33.5252 16.7919 31.8915 17.1727 30.9092 16.4511C29.927 15.7996 29.8668 15.4688 29.7365 15.2082C29.6062 14.8875 29.5361 14.8875 29.2153 15.0779C28.8846 15.3385 27.7821 15.8597 27.321 16.0602C26.9001 16.2907 26.429 16.401 25.9479 16.3809C25.2964 16.3208 24.5747 16.1203 24.254 15.5991C23.9333 15.0779 23.9232 14.6871 23.6025 14.9477C23.2818 15.2082 21.4476 16.2506 20.4753 16.5112C19.3628 16.6415 19.1022 16.7718 18.581 16.6415C17.9897 16.5112 17.4083 16.3108 17.2079 15.99C17.0074 15.6693 16.9473 15.5991 16.6867 15.7896C16.4261 15.98 15.7044 16.5112 15.1832 16.4411C14.662 16.3709 13.2889 16.0502 12.5071 14.677C11.7855 13.3039 12.3066 12.7226 12.9581 12.0711C13.6096 11.3494 14.8525 10.3772 14.8525 10.3772C14.8525 10.3772 16.3559 9.3348 16.8069 9.07421C17.3281 8.81361 18.1099 8.35255 18.6311 8.35255C19.1523 8.35255 19.874 8.35255 20.5856 8.94391C21.2972 9.53526 21.6981 10.1166 21.8284 10.3772C21.8886 10.5776 22.2193 11.4196 21.6981 12.0109C21.177 12.6023 19.7437 13.9654 19.7437 13.9654C19.7437 13.9654 19.1523 14.2962 19.4129 14.7472C19.6735 15.1381 20.6558 14.4866 20.9164 14.226C21.2471 14.0255 22.941 12.5321 23.4622 12.0711C23.9834 11.5499 27.2509 8.35255 27.5716 8.09196C27.8322 7.7612 30.5684 5.08507 31.0295 4.82448C31.4204 4.56388 31.5507 4.37344 32.3325 4.50374C32.7434 4.5739 33.1343 4.7042 33.5052 4.89464C33.5052 4.89464 34.287 5.21537 33.6355 5.67643C33.0441 6.19762 30.9593 7.8915 30.4381 8.41269C29.917 8.93388 28.4235 10.4373 27.9725 10.9585C27.4513 11.4797 26.1483 13.1135 25.9479 13.4342C25.7474 13.7549 25.6171 14.0857 25.9479 14.3463C26.2786 14.6069 26.86 14.3463 27.4513 13.8251C28.0427 13.3039 29.8668 11.8004 30.4582 11.149C31.0495 10.4975 34.5075 7.30014 34.8282 7.03955C35.1489 6.77895 36.7225 5.47597 36.7225 5.47597C36.7225 5.47597 36.923 5.21537 37.374 5.21537C37.8251 5.21537 38.2861 5.27551 38.5467 5.41583L39.3285 5.80673C39.3285 5.80673 39.6593 5.93702 39.128 6.32792C38.5968 6.71881 35.7303 8.93388 34.9485 9.78584C34.2268 10.6378 32.6632 12.3317 32.0819 13.0433C31.4906 13.8251 31.0997 14.216 31.5607 14.677C32.0118 15.1982 32.543 15.0679 32.8036 14.9978C33.0642 14.9276 33.9762 14.2761 34.5676 13.6246C35.2191 12.9731 37.1736 10.8783 37.4342 10.6177C37.6346 10.3571 38.4164 9.63549 38.4164 9.63549C38.4164 9.63549 38.5467 9.31476 39.0078 9.31476C39.4688 9.31476 39.6593 9.37489 40.1203 9.44505C40.5112 9.57535 41.4233 9.70565 40.9723 10.2268C40.4511 10.748 39.2082 11.9909 38.9476 12.3116C38.687 12.6323 37.6446 13.8151 37.4442 14.1358C37.2437 14.4565 36.9932 14.8574 37.2437 15.0479C37.4943 15.2383 38.226 14.9877 38.8775 14.5868C39.7996 14.1157 40.6515 13.5244 41.4233 12.8228C42.2752 12.041 43.6384 10.7982 43.6384 10.7982C43.6384 10.7982 43.8388 10.277 44.8812 10.4774C45.8635 10.6779 46.1241 10.7982 46.1241 10.7982C46.1241 10.7982 46.9058 10.9986 46.3847 11.4496C45.8635 11.9007 44.1696 13.4041 43.5081 14.0556C42.8566 14.647 40.8319 16.7317 40.5012 17.1226C40.1704 17.5135 39.1982 18.4256 39.5891 18.4958C39.98 18.5659 42.9769 19.1473 43.6384 19.3477C44.2397 19.5783 46.525 20.4302 46.7254 20.5004Z" fill="black"/>
</g>
<defs>
<clipPath id="clip0_0_366">
<rect width="49.1484" height="25.2568" fill="white" transform="scale(1.01733)"/>
</clipPath>
</defs>
</svg>
