<svg width="30" height="30" viewBox="0 0 30 30" fill="none" xmlns="http://www.w3.org/2000/svg">
<path d="M16.875 27.3603C22.8891 26.4557 27.5 21.2663 27.5 15C27.5 8.09644 21.9036 2.5 15 2.5C8.09644 2.5 2.5 8.09644 2.5 15C2.5 21.2663 7.11092 26.4557 13.125 27.3603V18.75H11.25C10.2145 18.75 9.375 17.9105 9.375 16.875C9.375 15.8395 10.2145 15 11.25 15H13.125V12.5C13.125 10.0838 15.0838 8.125 17.5 8.125H18.125C19.1605 8.125 20 8.96447 20 10C20 11.0355 19.1605 11.875 18.125 11.875H17.5C17.1548 11.875 16.875 12.1548 16.875 12.5V15H18.75C19.7855 15 20.625 15.8395 20.625 16.875C20.625 17.9105 19.7855 18.75 18.75 18.75H16.875V27.3603Z" fill="#2B56D6"/>
</svg>
