<svg width="30" height="30" viewBox="0 0 30 30" fill="none" xmlns="http://www.w3.org/2000/svg">
<path d="M15 12.5C13.6193 12.5 12.5 13.6193 12.5 15C12.5 16.3807 13.6193 17.5 15 17.5C16.3807 17.5 17.5 16.3807 17.5 15C17.5 13.6193 16.3807 12.5 15 12.5Z" fill="#2B56D6"/>
<path fill-rule="evenodd" clip-rule="evenodd" d="M3.75 10C3.75 6.54822 6.54822 3.75 10 3.75H20C23.4518 3.75 26.25 6.54822 26.25 10V20C26.25 23.4518 23.4518 26.25 20 26.25H10C6.54822 26.25 3.75 23.4518 3.75 20V10ZM10 15C10 12.2386 12.2386 10 15 10C17.7614 10 20 12.2386 20 15C20 17.7614 17.7614 20 15 20C12.2386 20 10 17.7614 10 15ZM20.625 10.625C21.3154 10.625 21.875 10.0654 21.875 9.375C21.875 8.68464 21.3154 8.125 20.625 8.125C19.9346 8.125 19.375 8.68464 19.375 9.375C19.375 10.0654 19.9346 10.625 20.625 10.625Z" fill="#2B56D6"/>
</svg>
