<svg width="35" height="35" viewBox="0 0 35 35" fill="none" xmlns="http://www.w3.org/2000/svg">
<path d="M17.4999 34.9999C7.83647 34.9999 0 27.1634 0 17.4999C0 7.83647 7.83647 0 17.4999 0C27.1634 0 34.9999 7.83647 34.9999 17.4999C34.9999 27.1634 27.1634 34.9999 17.4999 34.9999Z" fill="#25D366"/>
<path fill-rule="evenodd" clip-rule="evenodd" d="M25.6801 9.35246C23.5101 7.17896 20.6191 5.98197 17.5426 5.97847C11.2041 5.97847 6.04167 11.1374 6.04167 17.4794C6.04167 19.5059 6.57016 21.4869 7.57816 23.2299L5.94717 29.1904L12.0441 27.5909C13.7241 28.5079 15.6141 28.9909 17.5391 28.9909H17.5426C23.8811 28.9909 29.0401 23.8319 29.0436 17.4899C29.0471 14.4169 27.8536 11.5259 25.6801 9.35246ZM17.5461 27.0484H17.5426C15.8276 27.0484 14.1441 26.5864 12.6776 25.7149L12.3276 25.5084L8.70866 26.4569L9.67465 22.9289L9.44715 22.5684C8.49166 21.0459 7.98416 19.2889 7.98416 17.4794C7.98766 12.2084 12.2751 7.92096 17.5496 7.92096C20.1046 7.92096 22.5021 8.91846 24.3081 10.7245C26.1141 12.5304 27.1081 14.9349 27.1046 17.4864C27.1046 22.7609 22.8136 27.0484 17.5461 27.0484ZM22.7891 19.8874C22.5021 19.7439 21.0881 19.0474 20.8256 18.9529C20.5631 18.8584 20.3706 18.8094 20.1781 19.0964C19.9856 19.3834 19.4361 20.0309 19.2681 20.2234C19.1001 20.4159 18.9321 20.4404 18.6451 20.2969C18.3581 20.1534 17.4306 19.8489 16.3351 18.8689C15.4811 18.1059 14.9036 17.1644 14.7356 16.8774C14.5676 16.5904 14.7181 16.4329 14.8616 16.2894C14.9911 16.1599 15.1486 15.9534 15.2921 15.7854C15.4356 15.6174 15.4846 15.4984 15.5791 15.3059C15.6736 15.1134 15.6281 14.9454 15.5546 14.8019C15.4811 14.6584 14.9071 13.2444 14.6691 12.6669C14.4346 12.1069 14.2001 12.1839 14.0216 12.1734C13.8536 12.1664 13.6611 12.1629 13.4721 12.1629C13.2796 12.1629 12.9681 12.2364 12.7056 12.5234C12.4431 12.8104 11.7011 13.5069 11.7011 14.9209C11.7011 16.3349 12.7301 17.7034 12.8736 17.8924C13.0171 18.0849 14.9001 20.9864 17.7841 22.2324C18.4701 22.5299 19.0056 22.7049 19.4221 22.8379C20.1116 23.0584 20.7381 23.0269 21.2316 22.9534C21.7846 22.8694 22.9326 22.2569 23.1706 21.5884C23.4086 20.9164 23.4086 20.3424 23.3386 20.2234C23.2686 20.1044 23.0761 20.0344 22.7891 19.8874Z" fill="white"/>
</svg>
