<svg width="30" height="30" viewBox="0 0 30 30" fill="none" xmlns="http://www.w3.org/2000/svg">
<path fill-rule="evenodd" clip-rule="evenodd" d="M3.74988 7.50024C3.74988 5.42918 5.42881 3.75024 7.49988 3.75024H22.4999C24.5709 3.75024 26.2499 5.42918 26.2499 7.50024V22.5002C26.2499 24.5713 24.5709 26.2502 22.4999 26.2502H7.49988C5.42881 26.2502 3.74988 24.5713 3.74988 22.5002V7.50024ZM11.2499 10.0002C11.2499 10.6906 10.6902 11.2502 9.99988 11.2502C9.30952 11.2502 8.74988 10.6906 8.74988 10.0002C8.74988 9.30989 9.30952 8.75024 9.99988 8.75024C10.6902 8.75024 11.2499 9.30989 11.2499 10.0002ZM11.2499 13.7502C11.2499 13.0599 10.6902 12.5002 9.99988 12.5002C9.30952 12.5002 8.74988 13.0599 8.74988 13.7502V20.0002C8.74988 20.6906 9.30952 21.2502 9.99988 21.2502C10.6902 21.2502 11.2499 20.6906 11.2499 20.0002V13.7502ZM12.4999 15.0173V20.0002C12.4999 20.6906 13.0595 21.2502 13.7499 21.2502C14.4402 21.2502 14.9999 20.6906 14.9999 20.0002V15.425C15.381 14.9947 16.0257 14.4904 16.7415 14.1842C17.1575 14.0063 17.7834 13.9351 18.2187 14.072C18.4091 14.1319 18.5177 14.216 18.5848 14.3067C18.6501 14.3948 18.7499 14.5886 18.7499 15.0002V20.0002C18.7499 20.6906 19.3095 21.2502 19.9999 21.2502C20.6902 21.2502 21.2499 20.6906 21.2499 20.0002V15.0002C21.2499 14.1617 21.0372 13.418 20.5946 12.8198C20.1539 12.2241 19.5594 11.8729 18.9686 11.6871C17.8413 11.3327 16.5923 11.5289 15.7582 11.8857C15.4937 11.9989 15.2328 12.1307 14.98 12.2768C14.8747 11.6931 14.364 11.2502 13.7499 11.2502C13.0595 11.2502 12.4999 11.8099 12.4999 12.5002V14.9808C12.4997 14.993 12.4997 15.0051 12.4999 15.0173Z" fill="#2B56D6"/>
</svg>
