<svg width="30" height="26" viewBox="0 0 30 26" fill="none" xmlns="http://www.w3.org/2000/svg">
<path d="M9.45626 0.0307232L1.62951 0.043685C1.36864 0.0439278 1.11163 0.10674 0.88006 0.22685C0.648488 0.346961 0.449103 0.520865 0.29864 0.733968C0.148177 0.947072 0.0510241 1.19316 0.0153356 1.45157C-0.020353 1.70999 0.0064637 1.97319 0.0935351 2.2191L4.31907 9.50578C4.54915 9.7929 4.84079 10.0247 5.17245 10.1839C5.50412 10.3432 5.86733 10.426 6.23526 10.4261H9.80407C10.0964 10.4255 10.3837 10.5019 10.6371 10.6476C10.8906 10.7933 11.1012 11.0031 11.2479 11.2559C11.3946 11.5088 11.4721 11.7958 11.4727 12.0881C11.4734 12.3804 11.3971 12.6677 11.2515 12.9212L9.4649 16.004C9.28127 16.3228 9.1721 16.679 9.14554 17.046C9.11898 17.413 9.17572 17.7812 9.31152 18.1232L13.5457 25.4293C13.7157 25.628 13.9309 25.7828 14.1732 25.8809C14.4156 25.9789 14.6779 26.0173 14.9382 25.9927C15.1985 25.9681 15.449 25.8814 15.6687 25.7397C15.8885 25.598 16.0709 25.4057 16.2007 25.1787L20.0892 18.3932L9.45626 0.0307232Z" fill="#ED1A3B"/>
<path d="M25.394 9.18674L20.0775 0.0141228L9.45531 0.0314051L20.0969 18.3939L25.394 9.18674Z" fill="#F79F1F"/>
<path d="M27.8527 3.78198e-05L20.0886 0.0129996L25.4051 9.18562L29.2807 2.44549C29.4235 2.19633 29.4982 1.9139 29.497 1.6267C29.4959 1.3395 29.419 1.05767 29.2742 0.80965C29.1294 0.561631 28.9217 0.356188 28.6721 0.214044C28.4226 0.0719009 28.1399 -0.00191648 27.8527 3.78198e-05Z" fill="#FFC312"/>
</svg>
